<?xml version="1.0" encoding="UTF-8"?>
<svg width="512" height="512" viewBox="0 0 512 512" xmlns="http://www.w3.org/2000/svg" role="img" aria-labelledby="title">
  <title id="title">SPRINTZEN logo</title>
  <defs>
    <linearGradient id="g" x1="0" x2="1">
      <stop offset="0" stop-color="#7c5cff" />
      <stop offset="1" stop-color="#6841ff" />
    </linearGradient>
  </defs>
  <rect width="100%" height="100%" fill="none" />
  <!-- stylized S using two slanted rounded rectangles -->
  <g transform="translate(56,56) scale(0.78)">
    <path d="M48 16 L216 16 C232 16 240 32 232 44 L172 164 C160 184 136 192 116 180 L36 140 C20 132 12 116 20 104 L68 44 C76 28 92 16 108 16" fill="url(#g)" rx="12" />
    <path d="M396 240 L228 240 C212 240 204 256 212 268 L272 388 C284 408 308 416 328 404 L408 364 C424 356 432 340 424 328 L376 268 C368 252 352 240 336 240" fill="url(#g)" rx="12" transform="translate(-140,-120)"/>
  </g>
  <text x="50%" y="86%" font-family="Inter, ui-sans-serif, system-ui, -apple-system, 'Segoe UI', Roboto, 'Helvetica Neue', Arial" font-weight="700" font-size="48" fill="#7c5cff" text-anchor="middle">SPRINTZEN</text>
</svg>
